<?xml version="1.0" encoding="utf-8"?>
<!-- Generator: Adobe Illustrator 17.1.0, SVG Export Plug-In . SVG Version: 6.00 Build 0)  -->
<!DOCTYPE svg PUBLIC "-//W3C//DTD SVG 1.1//EN" "http://www.w3.org/Graphics/SVG/1.1/DTD/svg11.dtd">
<svg version="1.1" id="Layer_1" xmlns="http://www.w3.org/2000/svg" xmlns:xlink="http://www.w3.org/1999/xlink" x="0px" y="0px"
	 viewBox="0 0 1540 496" enable-background="new 0 0 1540 496" xml:space="preserve">
<rect fill="none" width="1540" height="496"/>
<g>
	<path fill="#FFFFFF" d="M542.5,213.7c-4.1,1-9.4,1-15.5,0.3c-17-2-36.1-5.3-55.9-9.1c-27.4,24.4-45.2,43.9-63,63.2
		c-2.3,2.5-10.9,11.7-13.5,14c12.2,0,24.1,0.5,30.7,1.3c4.1,0.5,4.1,2.5,2.8,3.8c-1,0.8-4.3,0-7.4,0c-5.8-0.8-18-1.5-29.2-1.3
		c-53.3,55.9-96.5,84.1-148.3,84.1c-20.1,0-39.1-8.9-37.8-34.5c0.5-13,6.9-27.9,17-42.2c-4.3-2.8-11.4-11.2-10.7-29.5
		c0.3-16.3,11.4-41.4,35.6-56.1c23.4-14.5,49-24.6,104.1-24.6c45.7,0,96.8,10.9,119.4,15.2c4.8-3.8,14.2-10.2,23.4-13
		c2-0.8,6.1-1.5,5.8,0.3c-0.3,1.3-3.8,2-4.3,2.3c-6.1,1.8-14.7,7.9-18.8,11.7c14,3,31.2,7.4,51,10.9c6.3,1,10.4,1.5,14,1
		c2.5-0.3,4.1-1,4.3-0.5C546.8,212.1,544.6,213.4,542.5,213.7z M349.8,288.3c-7.1,1.3-16,3.8-21.3,7.6c-3,2-7.4,6.3-11.4,9.9
		c-3.6,3-7.4,5.6-9.1,3.8c-1.5-1.5,3-7.1,6.6-9.7c3.3-2.8,9.1-6.6,15.2-9.1c19.8-20.6,32.5-44.2,23.4-52.1
		c-3.6-3.3-7.9-3.6-13.2-3.6c-20.6,0.3-51.8,16-75.7,32c-27.9,18.8-53.6,46.7-54.9,68.1c-1.3,23.4,15.7,30.2,34.3,30.2
		c42.4,0,88.9-38.3,131.6-79.2C366.8,286.8,357.6,287.3,349.8,288.3z M351.3,191.8c-49.8,0-78.5,8.6-99.6,20.8
		c-26.4,15.5-36.1,36.1-36.1,51.3c-0.3,13.5,3.3,22.1,8.6,26.9c8.9-11.9,20.6-23.1,34-32.5C285.3,240.1,316,232,336,232
		c7.9,0,14,1.3,17.8,3.8c12.7,8.1,1.5,32.8-18,52.8c5.1-2,14.5-3.3,19.6-4.1c9.4-1,15.7-1.3,23.6-1.8c3.8-3.3,14-13.7,17.3-17.3
		c23.6-23.1,45.2-43.2,67.8-62.2C448.3,200.7,389.4,191.8,351.3,191.8z"/>
</g>
<g>
	<path fill="#FFFFFF" d="M474.7,289.1c-0.8-0.3-1.8-1.3-3-2c-2.3-1.3-3.3-1.8-6.6-2c-10.4-0.5-32,16-49.3,32.3
		c-16.3,15.5-18.8,19-32.3,36.1c-3,0-3.6-7.4-2.3-9.9c6.9-13,19.3-28.4,32.8-42.4c8.1-8.6,17-16.5,23.1-20.3
		c4.1-2.8,11.4-4.3,17.8-4.3c-10.4,6.9-24.9,19.6-35.8,32.3l0.8,1c14-12.2,40.4-35.3,52.8-33c4.3,0.8,6.1,3.8,5.8,7.6
		C478.3,287.6,475.7,289.4,474.7,289.1z"/>
	<path fill="#FFFFFF" d="M508.5,298.2c-8.1,5.6-26.9,11.9-32,8.9C460.8,321.9,443,344,452.4,348c4.6,1.8,14.7-1.5,25.1-8.1
		c12.2-7.6,25.1-19,32.3-25.7c1-1,2.8-2,3.6-1c1,1.3-0.3,2.5-1.3,3.6c-8.6,7.9-18,16-29.2,23.6c-8.9,6.3-21.1,12.4-31,11.7
		c-6.6-0.8-12.4-4.6-11.4-13.7c0.3-4.8,3.6-17.3,19.8-33c19.3-18.3,49.3-34.5,58.2-29.5C526.8,280.7,518.1,291.4,508.5,298.2z
		 M478,305.6c3.8,1.5,16.5-2.8,27.7-11.7c8.4-6.6,13.7-13.7,11.2-15.7C513.8,275.6,490.5,293.4,478,305.6z"/>
	<path fill="#FFFFFF" d="M595.1,318.8c-7.9,6.9-19,16.5-28.4,22.9c-10.2,7.4-21.1,11.7-26.9,10.4c-6.3-1.5-9.4-10.9-1-22.9
		c6.3-8.9,11.4-13.5,21.8-23.1c8.6-7.9,30.2-24.6,25.1-26.7c-5.8-2.5-44.4,21.6-61.7,37.8c-16.3,15.5-18.8,19-32.3,36.1
		c-3,0-3.8-6.6-2.3-9.9c6.9-13,19.3-28.4,32.8-42.4c8.1-8.6,17.3-16.5,23.4-20.6c4.3-2.8,11.2-4.1,17.5-4.1
		c-9.1,6.3-23.6,19.8-35.3,33c14.7-11.9,51-37.3,61.5-33.8c16.3,5.1-5.6,26.4-17.8,37.3c-8.1,7.4-15,14.2-20.3,19.8
		c-9.1,9.4-10.7,13.2-8.1,15.2c2.5,1.8,13-2.8,22.9-9.9c8.9-6.3,20.6-16.8,27.7-22.6c1-0.8,2-1.8,3-0.5
		C597.9,316.3,596.4,317.8,595.1,318.8z"/>
	<path fill="#FFFFFF" d="M645.9,303.6c-2.3,2-7.4,5.3-9.9,2.3c-2.8-3.6,3.8-8.4,7.9-10.9c10.7-6.6,13.2-13.7,9.7-16
		c-4.8-3.3-28.7,17.8-41.9,30.5c-22.1,21.1-27.7,35-22.1,38.3c6.1,3.3,21.8-5.3,28.2-9.7c9.4-6.3,23.4-18,30.5-24.4
		c1-0.8,2.3-1.3,3-0.5c0.8,0.5,0.5,1.8-0.5,2.5c-6.9,6.9-17.8,15.7-26.7,22.3c-8.9,6.3-19.3,12.7-30.5,14c-9.9,1-15.7-4.3-15.5-12.2
		c0-11.4,8.9-24.6,21.6-36.3c19.8-18.3,47.2-32.3,55.9-27.2c5.3,3,2,10.9,0.5,14.2C653.8,295.5,650.5,300,645.9,303.6z"/>
	<path fill="#FFFFFF" d="M832.6,222.3c-1.5,0.3-3.8-2.5-5.1-3.8c-5.1-4.8-12.7-9.9-26.2-9.9c-19.6,0-37.3,9.9-54.9,22.6
		c-19.6,15-44.2,39.1-72.1,69.8c12.4-9.7,45.2-28.7,55.6-25.4c16.3,5.1-5.6,26.4-17.8,37.3c-7.9,7.4-15.2,14-20.3,19.8
		c-8.1,9.1-10.7,13.2-8.1,15.2c2.8,2,13.5-3.3,23.4-10.4c8.9-6.3,19-15,25.4-20.6c1-0.8,2.3-2,3.3-0.8c0.8,1.3,0,2.5-1,3.6
		c-7.9,6.9-18,15.5-26.9,21.8c-10.7,7.4-21.3,11.7-27.4,10.4c-6.3-1.5-9.4-10.9-1-22.9c6.3-8.9,11.4-13.5,21.8-23.1
		c8.6-7.9,30.2-24.6,25.1-26.7c-5.8-2.5-39.9,15.5-55.6,29c-17.3,14.5-29.7,32-38.3,45c-3,0-4.1-6.6-2.5-9.9
		c8.6-18,23.9-36.1,31.7-44.7c26.9-30,55.4-55.6,77-70.3c17-12.2,45.7-23.9,63.7-23.9c16.5,0,27.7,4.8,31.5,11.9
		C834.8,218.8,834.3,221.5,832.6,222.3z"/>
</g>
<g>
	<path fill="#FFFFFF" d="M1134.2,213.7c-4.1,1-9.4,1-15.5,0.3c-17-2-36.1-5.3-55.9-9.1c-27.4,24.4-45.2,43.9-63,63.2
		c-2.3,2.5-10.9,11.7-13.5,14c12.2,0,24.1,0.5,30.7,1.3c4.1,0.5,4.1,2.5,2.8,3.8c-1,0.8-4.3,0-7.4,0c-5.8-0.8-18-1.5-29.2-1.3
		c-53.3,55.9-96.5,84.1-148.3,84.1c-20.1,0-39.1-8.9-37.8-34.5c0.5-13,6.9-27.9,17-42.2c-4.3-2.8-11.4-11.2-10.7-29.5
		c0.3-16.3,11.4-41.4,35.6-56.1c23.4-14.5,49-24.6,104.1-24.6c45.7,0,96.8,10.9,119.4,15.2c4.8-3.8,14.2-10.2,23.4-13
		c2-0.8,6.1-1.5,5.8,0.3c-0.3,1.3-3.8,2-4.3,2.3c-6.1,1.8-14.7,7.9-18.8,11.7c14,3,31.2,7.4,51,10.9c6.3,1,10.4,1.5,14,1
		c2.5-0.3,4.1-1,4.3-0.5C1138.5,212.1,1136.2,213.4,1134.2,213.7z M941.4,288.3c-7.1,1.3-16,3.8-21.3,7.6c-3,2-7.4,6.3-11.4,9.9
		c-3.6,3-7.4,5.6-9.1,3.8c-1.5-1.5,3-7.1,6.6-9.7c3.3-2.8,9.1-6.6,15.2-9.1c19.8-20.6,32.5-44.2,23.4-52.1
		c-3.6-3.3-7.9-3.6-13.2-3.6c-20.6,0.3-51.8,16-75.7,32c-27.9,18.8-53.6,46.7-54.9,68.1c-1.3,23.4,15.7,30.2,34.3,30.2
		c42.4,0,88.9-38.3,131.6-79.2C958.5,286.8,949.3,287.3,941.4,288.3z M943,191.8c-49.8,0-78.5,8.6-99.6,20.8
		c-26.4,15.5-36.1,36.1-36.1,51.3c-0.3,13.5,3.3,22.1,8.6,26.9c8.9-11.9,20.6-23.1,34-32.5c26.9-18.3,57.7-26.4,77.7-26.4
		c7.9,0,14,1.3,17.8,3.8c12.7,8.1,1.5,32.8-18,52.8c5.1-2,14.5-3.3,19.6-4.1c9.4-1,15.7-1.3,23.6-1.8c3.8-3.3,14-13.7,17.3-17.3
		c23.6-23.1,45.2-43.2,67.8-62.2C1040,200.7,981.1,191.8,943,191.8z"/>
</g>
<g>
	<path fill="#FFFFFF" d="M1066.4,289.1c-0.8-0.3-1.8-1.3-3-2c-2.3-1.3-3.3-1.8-6.6-2c-10.4-0.5-32,16-49.3,32.3
		c-16.3,15.5-18.8,19-32.3,36.1c-3,0-3.6-7.4-2.3-9.9c6.9-13,19.3-28.4,32.8-42.4c8.1-8.6,17-16.5,23.1-20.3
		c4.1-2.8,11.4-4.3,17.8-4.3c-10.4,6.9-24.9,19.6-35.8,32.3l0.8,1c14-12.2,40.4-35.3,52.8-33c4.3,0.8,6.1,3.8,5.8,7.6
		C1070,287.6,1067.4,289.4,1066.4,289.1z"/>
	<path fill="#FFFFFF" d="M1090.3,329c-7.9,9.7-13.2,16.8-9.4,18.5s17.5-7.9,24.6-13.5c8.1-6.3,18-15.2,24.1-20.6
		c0.8-0.8,2.3-1.5,3-0.3c0.8,1.5-0.3,2.3-1.3,3.3c-7.4,6.3-17.5,15-23.6,20.1c-7.6,6.1-20.6,15.2-27.2,15.2
		c-8.6,0-13.5-7.6-4.1-21.6c-14.7,12.4-28.4,21.6-36.6,21.6c-17.3,0-6.3-26.2,11.2-43.9c20.1-20.6,54.1-38.1,65-31.7
		c3.3,2,4.3,7.9-5.6,17.3c10.2-8.4,17-13.5,21.3-15c3.3-1,6.6-1.3,9.9-1C1120,297,1099.2,318.6,1090.3,329z M1062.8,314
		c-15.5,15-27.7,31.5-21.8,34c4.6,2,26.9-13.5,48.5-35.6c9.9-10.2,30-29,24.6-33C1109.3,275.6,1089.8,288.3,1062.8,314z"/>
	<path fill="#FFFFFF" d="M1255.4,318.8c-7.9,7.4-18.8,16.5-28.2,22.9c-10.2,7.4-21.1,11.7-26.9,10.4c-6.3-1.5-9.4-10.9-1-22.9
		c6.3-8.9,11.4-13.5,21.8-23.1c8.6-7.9,29.5-23.6,25.1-26.7c-3.6-2.8-37.6,16.5-56.6,33.3c-18.8,16.5-23.9,24.1-37.3,40.6
		c-3,0-3.3-7.4-2-9.9c6.6-13,15.2-22.6,29-37.3c7.9-8.4,30.2-24.6,25.1-26.7c-5.8-2.5-43.9,20.8-61.7,37.8
		c-16.3,15.5-18.8,19-32.3,36.1c-3,0-3.6-6.9-2.3-9.9c6.3-11.9,17.5-26.2,32.8-42.4c8.1-8.6,17.5-16.5,23.6-20.6
		c4.3-2.8,11.2-4.1,17.5-4.1c-9.1,6.1-24.4,20.1-36.1,33.5c18.5-15,49.5-36.6,62-34.3c7.9,1.3,5.8,11.4-0.3,19.3
		c16-10.7,35.3-21.8,42.2-19.3c16,6.3-5.6,26.4-17.8,37.3c-8.1,7.4-15,14.2-20.3,19.8c-7.1,7.6-11.2,12.7-8.1,15.2
		c2.5,2,13-3,22.9-10.2c10.7-7.6,21.1-16.5,26.7-21.6c1.3-1.3,2.8-2.5,4.1-1.3C1258.4,316.3,1256.6,317.8,1255.4,318.8z"/>
	<path fill="#FFFFFF" d="M1306.7,298.2c-8.1,5.6-26.9,11.9-32,8.9c-15.7,14.7-33.5,36.8-24.1,40.9c4.6,1.8,14.7-1.5,25.1-8.1
		c12.2-7.6,25.1-19,32.3-25.7c1-1,2.8-2,3.6-1c1,1.3-0.3,2.5-1.3,3.6c-8.6,7.9-18,16-29.2,23.6c-8.9,6.3-21.1,12.4-31,11.7
		c-6.6-0.8-12.4-4.6-11.4-13.7c0.3-4.8,3.6-17.3,19.8-33c19.3-18.3,49.3-34.5,58.2-29.5C1324.9,280.7,1316.3,291.4,1306.7,298.2z
		 M1276.2,305.6c3.8,1.5,16.5-2.8,27.7-11.7c8.4-6.6,13.7-13.7,11.2-15.7C1312,275.6,1288.6,293.4,1276.2,305.6z"/>
	<path fill="#FFFFFF" d="M1366.3,272.1c-6.1,4.3-13.7,8.6-17.3,12.4c-2.8,3.3-4.1,8.9-4.8,13c-2.3,11.7-2.8,31.7-25.4,46.7
		c16.5-7.6,32.8-20.1,44.4-30.5c0.8-0.8,1.5-1,2.5,0c1,0.8,0,2.5-0.8,3c-14.7,13.5-33.5,25.1-44.4,30c-8.6,4.1-21.3,5.8-26.4,5.3
		c-6.6-0.3-12.2-2.8-11.9-9.7c0-4.1,3.6-9.7,9.1-14.7c2.3-1.8,7.9-6.6,10.9-9.1c4.6-4.1,8.6-7.4,11.9-7.4
		c10.2-8.6,23.9-20.6,30.2-27.9c6.1-7.4,10.7-12.7,16.8-18c8.9-8.1,14.5-11.4,17.5-8.9C1380.8,258.1,1377.5,264.2,1366.3,272.1z
		 M1315.8,313.7c-0.8,2.3-5.1,6.3-11.4,10.4c-3,2.3-9.1,6.1-12.7,8.6c-4.1,3-5.8,6.1-6.1,8.9c-0.3,3.6,3.3,5.1,6.3,5.1
		c7.6,0,18.5-5.3,28.4-16.5c8.9-9.7,19.6-29.7,22.6-41.4C1336.1,296.5,1326,305.4,1315.8,313.7z"/>
</g>
<g>
	<path fill="#FFFFFF" d="M23.3,156.8h15.5V29.3H23.3v-3.4h62.4v3.4H68.6v127.4h21.9c33.8,0,41.4-16.4,41.4-38.5v-3.8h3.4v45.8h-112
		V156.8z"/>
	<path fill="#FFFFFF" d="M234.7,22.9c36.1,0,60.7,32.8,60.7,70.2c0.8,35.7-26.9,70.2-60.7,70.2s-61.4-34.5-60.7-70.2
		C174.1,55.7,198.7,22.9,234.7,22.9z M263.3,93.1c0-60.3-13.9-66.8-28.6-66.8c-14.7,0-28.6,6.5-28.6,66.8c0,48.5,6.3,66.8,28.6,66.8
		S263.3,141.5,263.3,93.1z"/>
	<path fill="#FFFFFF" d="M327.4,25.9h60.1v3.4h-15.5v83.9c0,24.4,5.5,43.1,33.4,43.1c18.5,0,34.1-12.6,34.1-38.5V45.4
		c0-11.1-3.1-16-12.8-16h-5.5v-3.4h37.8v3.4h-5c-6.9,0-9.9,5-9.9,16v71.3c0,28-15.3,46.5-50.4,46.5c-31.1,0-51.5-17.9-51.5-47.5
		V29.3h-14.9V25.9z"/>
	<path fill="#FFFFFF" d="M494.9,156.8h15.5V29.3h-15.5v-3.4h60.7v3.4h-15.5v127.4h15.5v3.4h-60.7V156.8z"/>
	<path fill="#FFFFFF" d="M595.8,109.7h3.4c4.6,21.6,19.1,50.2,44.8,50.2c16.4,0,27.5-10.1,27.5-26.9c0-41.6-76.1-11.6-76.1-69.1
		c0-25.2,16.8-41,42-41c19.3,0,25.4,10.3,34,10.3c5.7,0,6.1-5,6.1-7.4h3.4v42.9h-3.4C672.7,48.4,662,26.3,638,26.3
		c-14.5,0-25.4,9.7-25.4,24.4c0,36.8,77.3,7.8,77.3,64.5c0,29.8-16.8,48.1-43.7,48.1c-16.6,0-32.2-9.9-39.9-9.9
		c-5.2,0-7.1,3.4-7.1,7.1h-3.4V109.7z"/>
	<path fill="#FFFFFF" d="M818.7,109.7h3.4c4.6,21.6,19.1,50.2,44.8,50.2c16.4,0,27.5-10.1,27.5-26.9c0-41.6-76.1-11.6-76.1-69.1
		c0-25.2,16.8-41,42-41c19.3,0,25.4,10.3,34,10.3c5.7,0,6.1-5,6.1-7.4h3.4v42.9h-3.4c-4.8-20.2-15.5-42.4-39.5-42.4
		c-14.5,0-25.4,9.7-25.4,24.4c0,36.8,77.3,7.8,77.3,64.5c0,29.8-16.8,48.1-43.7,48.1c-16.6,0-32.2-9.9-39.9-9.9
		c-5.2,0-7.1,3.4-7.1,7.1h-3.4V109.7z"/>
	<path fill="#FFFFFF" d="M973.2,156.8h17.7V29.3h-7.8c-24.8,0-31.1,17.4-34,38.3h-3.4V25.9h120.2v41.8h-3.4
		c-2.9-21-9.2-38.3-34-38.3h-7.8v127.4h17.7v3.4h-65.2V156.8z"/>
	<path fill="#FFFFFF" d="M1134.8,156.8h14.7v-43.3l-37-84.1h-12.6v-3.4h58.8v3.4h-13.7l31.5,72.1l22.7-51.5
		c2.3-5.5,3.8-9.9,3.8-13.2c0-5-2.9-7.4-11.4-7.4h-2.5v-3.4h34.3v3.4h-1.3c-6.5,0-10.9,3.6-16.8,17.9l-25.9,58.2v51.3h14.7v3.4
		h-59.1V156.8z"/>
	<path fill="#FFFFFF" d="M1258,156.8h15.5V29.3H1258v-3.4h62.4v3.4h-17.2v127.4h21.9c33.8,0,41.4-16.4,41.4-38.5v-3.8h3.4v45.8h-112
		V156.8z"/>
	<path fill="#FFFFFF" d="M1408,156.8h15.5V29.3H1408v-3.4h106.6v38h-3.4v-2.7c0-17.4-12.8-31.9-35.5-31.9h-22.5v58.4h13.2
		c12.4,0,18.9-7.1,18.9-25.2v-2.1h3.4v60.3h-3.4v-4.4c0-13.5-6.5-25.2-18.9-25.2h-13.2v65.6h27.5c31.3,0,35.9-25.9,35.9-36.8v-2.7
		h3.4v42.9h-112V156.8z"/>
</g>
<g>
	<path fill="#FFFFFF" d="M541.9,468.1h10.7v-54.3c0-3.4-0.6-4.5-3.3-4.5c-1.1,0-2.5,0.4-5.6,2.1l-8.7,4.7l-1-2
		c10.2-5.8,21.9-13.2,26.5-18.8h7.3v72.7h9.8v1.9h-35.7V468.1z"/>
	<path fill="#FFFFFF" d="M631.3,396.5c-12.6,0.4-24.9,6.7-28.1,20.8c-1.3,5.6-1.5,9.3-1.7,13h0.2c2.2-5.3,7.7-7.4,13.6-7.4
		c11.3,0,20.3,9.6,20.3,22.6c0,16-12.7,25.4-24.6,25.4c-15.9,0-25.6-13.5-25.6-28.5c0-26,22.8-47.8,45.9-47.8V396.5z M611.2,426
		c-6.5,0-10.6,7-10.6,18.5c0,13.1,0.8,24.4,10.2,24.4c7.7,0,10.2-5.4,10.2-20.6C621,431.9,618.8,426,611.2,426z"/>
	<path fill="#FFFFFF" d="M646.4,468.1h10.7v-54.3c0-3.4-0.6-4.5-3.3-4.5c-1.1,0-2.5,0.4-5.6,2.1l-8.7,4.7l-1-2
		c10.2-5.8,21.9-13.2,26.5-18.8h7.3v72.7h9.8v1.9h-35.7V468.1z"/>
	<path fill="#FFFFFF" d="M716.1,470.9c-10.7,0-25.5-11.2-25.5-38.2s14.8-38.2,25.5-38.2c10.7,0,25.5,11.2,25.5,38.2
		S726.8,470.9,716.1,470.9z M705.8,444.8c0,12,0,24.2,10.3,24.2c10.3,0,10.3-12.2,10.3-24.2v-24.2c0-12,0-24.2-10.3-24.2
		c-10.3,0-10.3,12.2-10.3,24.2V444.8z"/>
	<path fill="#FFFFFF" d="M750.4,439.1h53v8.3h-53V439.1z"/>
	<path fill="#FFFFFF" d="M811.7,468.1h10.7v-54.3c0-3.4-0.6-4.5-3.3-4.5c-1.1,0-2.5,0.4-5.6,2.1l-8.7,4.7l-1-2
		c10.2-5.8,21.9-13.2,26.5-18.8h7.3v72.7h9.8v1.9h-35.7V468.1z"/>
	<path fill="#FFFFFF" d="M904.3,398.6c-6.3,10-27.5,46-27.5,56.4c0,1.3,0.6,1.9,3.2,1.9c3.5,0,5.9,2.8,5.9,6.7
		c0,4.5-2.5,7.3-7.3,7.3c-5.5,0-7.5-3.9-7.5-8.3c0-10.7,17.2-38.3,18.4-53.2h-33.2l-2.1,7.9h-1.9c2.2-7.1,3.1-14.5,3.7-21.9h48.2
		V398.6z"/>
	<path fill="#FFFFFF" d="M913,469c12.6-0.4,24.9-6.7,28.1-20.8c1.3-5.6,1.5-9.3,1.7-13h-0.2c-2.2,5.3-7.7,7.4-13.6,7.4
		c-11.3,0-20.3-9.6-20.3-22.6c0-16,12.7-25.4,24.6-25.4c15.9,0,25.6,13.5,25.6,28.5c0,26-22.8,47.8-45.9,47.8V469z M933,439.4
		c6.5,0,10.6-7,10.6-18.5c0-13.1-0.8-24.4-10.2-24.4c-7.7,0-10.2,5.4-10.2,20.6C923.3,433.6,925.5,439.4,933,439.4z"/>
	<path fill="#FFFFFF" d="M967.4,467.4c1.5-3.4,4.2-7.6,7.1-10.5c10.2-12,26.8-19.3,26.8-39.2c0-11-2.4-21.2-14.6-21.2
		c-6,0-14.8,4.9-14.8,11.9c0,3.7,3.3,2.4,5.9,2.4c4,0,6.9,2.9,6.9,6.8c0,5-3.8,7.2-8.4,7.2c-6.9,0-9.5-5.5-9.5-11.4
		c0-11.6,10.2-18.8,22-18.8c14,0,27.8,7.8,27.8,23.1c0,24.5-24.4,23.8-38.7,38.4h36.4l1.8-10.3h1.7c-2,7.9-2.6,17.9-2.9,24.3h-48.6
		L967.4,467.4z"/>
</g>
</svg>
