<?xml version="1.0" encoding="utf-8"?>
<!-- Generator: Adobe Illustrator 17.1.0, SVG Export Plug-In . SVG Version: 6.00 Build 0)  -->
<!DOCTYPE svg PUBLIC "-//W3C//DTD SVG 1.1//EN" "http://www.w3.org/Graphics/SVG/1.1/DTD/svg11.dtd">
<svg version="1.1" id="Layer_1" xmlns="http://www.w3.org/2000/svg" xmlns:xlink="http://www.w3.org/1999/xlink" x="0px" y="0px"
	 viewBox="0 0 220 220" enable-background="new 0 0 220 220" xml:space="preserve">
<g>
	<path fill="#CCCCCC" d="M200,10c5.5,0,10,4.5,10,10v180c0,5.5-4.5,10-10,10H20c-5.5,0-10-4.5-10-10V20c0-5.5,4.5-10,10-10H200
		 M200,0H20C9,0,0,9,0,20v180c0,11,9,20,20,20h180c11,0,20-9,20-20V20C220,9,211,0,200,0L200,0z"/>
</g>
</svg>
