<?xml version="1.0" encoding="utf-8"?>
<!-- Generator: Adobe Illustrator 17.1.0, SVG Export Plug-In . SVG Version: 6.00 Build 0)  -->
<!DOCTYPE svg PUBLIC "-//W3C//DTD SVG 1.1//EN" "http://www.w3.org/Graphics/SVG/1.1/DTD/svg11.dtd">
<svg version="1.1" id="Layer_1" xmlns="http://www.w3.org/2000/svg" xmlns:xlink="http://www.w3.org/1999/xlink" x="0px" y="0px"
	 viewBox="-76 -76 200 200" enable-background="new -76 -76 200 200" xml:space="preserve">
<path fill="#CCCCCC" d="M114,124H-66c-5.5,0-10-4.5-10-10V-66c0-5.5,4.5-10,10-10h180c5.5,0,10,4.5,10,10v180
	C124,119.5,119.5,124,114,124z"/>
<path fill="#F1F1F1" d="M62,70h-76c-4.4,0-8-4.8-8-10.8v-70.4c0-6,3.6-10.8,8-10.8h76c4.4,0,8,4.8,8,10.8v70.4
	C70,65.2,66.4,70,62,70z M66-12.4c0-3.1-1.8-5.6-4-5.6h-76c-2.2,0-4,2.5-4,5.6v72.8c0,3.1,1.8,5.6,4,5.6h76c2.2,0,4-2.5,4-5.6V-12.4
	z M58.7,45.4L46,32.8L38.8,40l6.7,6.7c0.8,0.8,0.8,2,0,2.8c-0.8,0.8-2,0.8-2.8,0L14,20.8l-24.7,24.7c-0.8,0.8-2,0.8-2.8,0
	c-0.8-0.8-0.8-2,0-2.8l25.8-25.8c0.1-0.1,0.1-0.2,0.2-0.3C13,16.2,13.5,16,14,16c0.5,0,1,0.2,1.4,0.6c0.1,0.1,0.1,0.2,0.2,0.3
	L36,37.2l8.4-8.4c0.1-0.1,0.1-0.2,0.2-0.3C45,28.2,45.5,28,46,28c0.5,0,1,0.2,1.4,0.6c0.1,0.1,0.1,0.2,0.2,0.3l13.8,13.8
	c0.8,0.8,0.8,2,0,2.8C60.7,46.2,59.4,46.2,58.7,45.4z M34,14c-4.4,0-8-3.6-8-8s3.6-8,8-8s8,3.6,8,8S38.4,14,34,14z M34,2
	c-2.2,0-4,1.8-4,4s1.8,4,4,4s4-1.8,4-4S36.2,2,34,2z"/>
</svg>
